<svg width="74" height="74" viewBox="0 0 74 74" fill="none" xmlns="http://www.w3.org/2000/svg">
<path d="M0 37C0 16.5655 16.5655 0 37 0C57.4345 0 74 16.5655 74 37C74 57.4345 57.4345 74 37 74C16.5655 74 0 57.4345 0 37Z" fill="#710193"/>
<path d="M53.8609 18.5H36.0906C36.0906 20.6275 36.9357 22.6679 38.4401 24.1723C39.9444 25.6766 41.9848 26.5218 44.1123 26.5218H47.3859V29.6822C47.3887 34.1086 50.9763 37.6961 55.4026 37.6988V20.0417C55.4026 19.1902 54.7124 18.5 53.8609 18.5Z" fill="white"/>
<path d="M45.0678 27.3542H27.2976C27.3004 31.7805 30.8878 35.368 35.3143 35.3709H38.5877V38.5416C38.5934 42.9679 42.1832 46.5531 46.6094 46.5531V28.8959C46.6094 28.0444 45.9192 27.3542 45.0678 27.3542Z" fill="white"/>
<path d="M36.2703 36.2034H18.5C18.5 40.6337 22.0915 44.2252 26.5218 44.2252H29.8055V47.3856C29.8084 51.8079 33.3897 55.3938 37.812 55.4023V37.7451C37.812 36.8936 37.1218 36.2034 36.2703 36.2034Z" fill="white"/>
</svg>
